<svg xmlns="http://www.w3.org/2000/svg" width="376" height="198" viewBox="0 0 376 198" data-theme="dark" data-conn="main/MOTOR" data-cat="motor" data-fill="#f0883e" data-heading="esc-motor-phases"><rect x="0.5" y="0.5" width="375" height="197" rx="10" fill="#0d1117" stroke="#30363d"/><text x="16" y="32" font-family="'IBM Plex Sans', -apple-system, 'Segoe UI', Helvetica, Arial, sans-serif" font-size="16" font-weight="700" fill="#e6edf3">MOTOR PHASES</text><text x="16" y="49" font-family="'IBM Plex Sans', -apple-system, 'Segoe UI', Helvetica, Arial, sans-serif" font-size="11" fill="#8b949e">Three solder pads on the bottom side, marked A, B and C</text><rect x="16" y="74" width="44" height="96" rx="4" fill="#2d333b" stroke="#8b949e"/><g id="main-MOTOR-pin-A" data-pin="A"><rect x="31.0" y="87.0" width="14" height="14" fill="#0d1117" stroke="#8b949e"/><text x="38.0" y="97.0" text-anchor="middle" font-family="'IBM Plex Sans', -apple-system, 'Segoe UI', Helvetica, Arial, sans-serif" font-size="8" font-weight="600" fill="#e6edf3">A</text><line x1="60" y1="94.0" x2="74" y2="94.0" stroke="#8b949e" stroke-width="1"/><rect x="74" y="83.0" width="69" height="22" rx="5" fill="#f0883e"/><text x="82" y="98.3" font-family="'IBM Plex Mono', ui-monospace, SFMono-Regular, Menlo, Consolas, monospace" font-size="12" font-weight="500" fill="#ffffff">Phase A</text><rect x="149" y="83.0" width="62" height="22" rx="5" fill="none" stroke="#f0883e" stroke-width="1.5"/><text x="157" y="98.3" font-family="'IBM Plex Mono', ui-monospace, SFMono-Regular, Menlo, Consolas, monospace" font-size="12" font-weight="500" fill="#f0883e">MOTORA</text></g><g id="main-MOTOR-pin-B" data-pin="B"><circle cx="38.0" cy="122.0" r="7" fill="#0d1117" stroke="#8b949e"/><text x="38.0" y="125.0" text-anchor="middle" font-family="'IBM Plex Sans', -apple-system, 'Segoe UI', Helvetica, Arial, sans-serif" font-size="8" font-weight="600" fill="#e6edf3">B</text><line x1="60" y1="122.0" x2="74" y2="122.0" stroke="#8b949e" stroke-width="1"/><rect x="74" y="111.0" width="69" height="22" rx="5" fill="#f0883e"/><text x="82" y="126.3" font-family="'IBM Plex Mono', ui-monospace, SFMono-Regular, Menlo, Consolas, monospace" font-size="12" font-weight="500" fill="#ffffff">Phase B</text><rect x="149" y="111.0" width="62" height="22" rx="5" fill="none" stroke="#f0883e" stroke-width="1.5"/><text x="157" y="126.3" font-family="'IBM Plex Mono', ui-monospace, SFMono-Regular, Menlo, Consolas, monospace" font-size="12" font-weight="500" fill="#f0883e">MOTORB</text></g><g id="main-MOTOR-pin-C" data-pin="C"><circle cx="38.0" cy="150.0" r="7" fill="#0d1117" stroke="#8b949e"/><text x="38.0" y="153.0" text-anchor="middle" font-family="'IBM Plex Sans', -apple-system, 'Segoe UI', Helvetica, Arial, sans-serif" font-size="8" font-weight="600" fill="#e6edf3">C</text><line x1="60" y1="150.0" x2="74" y2="150.0" stroke="#8b949e" stroke-width="1"/><rect x="74" y="139.0" width="69" height="22" rx="5" fill="#f0883e"/><text x="82" y="154.3" font-family="'IBM Plex Mono', ui-monospace, SFMono-Regular, Menlo, Consolas, monospace" font-size="12" font-weight="500" fill="#ffffff">Phase C</text><rect x="149" y="139.0" width="62" height="22" rx="5" fill="none" stroke="#f0883e" stroke-width="1.5"/><text x="157" y="154.3" font-family="'IBM Plex Mono', ui-monospace, SFMono-Regular, Menlo, Consolas, monospace" font-size="12" font-weight="500" fill="#f0883e">MOTORC</text></g></svg>
